<?xml version="1.0" standalone="no"?>
<!DOCTYPE svg PUBLIC "-//W3C//DTD SVG 1.1//EN" "http://www.w3.org/Graphics/SVG/1.1/DTD/svg11.dtd" >
<svg xmlns="http://www.w3.org/2000/svg" xmlns:xlink="http://www.w3.org/1999/xlink" version="1.1">
<metadata>
Created by FontForge 20150715 at Sun Dec 13 18:26:52 2015
 By Jimmy Wärting
Copyright (c) 2015 by seventhimperium. All rights reserved.
</metadata>
<defs>
<font id="Agneya" horiz-adv-x="282" >
  <font-face 
    font-family="Agneya"
    font-weight="400"
    font-stretch="normal"
    units-per-em="1000"
    panose-1="0 0 0 0 0 0 0 0 0 0"
    ascent="750"
    descent="-250"
    x-height="377"
    cap-height="610"
    bbox="-179.556 -310.341 1459.75 622.494"
    underline-thickness="50"
    underline-position="-100"
    unicode-range="U+000D-007E"
  />
<missing-glyph horiz-adv-x="192" 
 />
    <glyph glyph-name=".notdef" horiz-adv-x="192" 
 />
    <glyph glyph-name=".notdef" horiz-adv-x="192" 
 />
    <glyph glyph-name="space" unicode=" " horiz-adv-x="192" 
 />
    <glyph glyph-name="E" unicode="E" horiz-adv-x="433" 
d="M127 6c41 -67 229 80 455 283h29c-79 -82 -311 -391 -439 -374c-32 4 -41 16 -60 34c-19 19 -61 58 -72 83c-38 84 85 210 189 255l-46 53c-22 27 -26 52 -5 86c53 87 257 215 290 176l33 -39l24 42c4 7 5 7 11 1l69 -58c8 -6 4 -10 -2 -19l-144 -226
c-7 -12 -10 -6 -19 3l-46 45c-5 5 -9 8 -5 14l65 114c-97 -33 -218 -89 -198 -139c6 -15 14 -24 21 -29c7 2 17 5 25 7c23 5 18 4 27 -8l55 -80c1 -1 2 -3 0 -4c-52 -44 -72 -25 -75 -27c-64 -29 -213 -142 -182 -193z" />
    <glyph glyph-name="F" unicode="F" horiz-adv-x="360" 
d="M519 423l46 101c-39 -5 -94 -9 -139 -10l19 -12c8 -3 4 -6 -1 -15c-20 -38 -48 -98 -79 -166l55 4c7 0 8 -1 13 -7l31 -35c4 -4 -1 -4 -7 -5l-117 -13c-59 -131 -121 -275 -149 -348c-1 -3 -2 -3 -4 -1l-88 81c-4 4 -7 5 -4 12c71 139 82 161 124 243l-10 -1
c-7 -1 -12 -3 -17 2l-41 43c-6 7 -12 11 -3 12l102 6c24 47 56 109 101 199c-50 1 -92 2 -114 3c-5 0 -7 2 -10 6l-46 53c-3 3 -6 5 -1 5c102 1 280 11 427 33c3 1 4 -1 7 -3l73 -62c2 -1 0 -5 -2 -7c-11 -17 -30 -50 -47 -85c-3 -6 -6 -6 -12 -9c-18 -6 -78 -21 -97 -25
c-6 -2 -12 -4 -10 1z" />
    <glyph glyph-name="G" unicode="G" horiz-adv-x="459" 
d="M628 529l-145 -234c-7 -12 -10 -6 -20 3l-45 45c-5 6 -9 8 -5 14l60 109c-232 -104 -381 -389 -320 -469c26 -34 106 52 183 145l2 4l-57 -16c-12 -4 -14 1 -23 12l-41 49c-5 6 -9 10 -2 12l224 32c4 0 6 -1 11 -6c2 -3 14 -14 20 -21c4 -6 4 -6 1 -11l-175 -369
c-6 -12 -10 -7 -20 1l-37 27c-6 5 -10 7 -7 13l56 149c-24 -32 -56 -72 -78 -91c-10 -8 -20 -14 -35 -13c-49 4 -124 97 -136 137c-38 130 131 460 412 553c29 10 46 9 54 0l27 -32l18 33c4 7 5 6 11 1l69 -58c8 -6 3 -10 -2 -19z" />
    <glyph glyph-name="H" unicode="H" horiz-adv-x="525" 
d="M703 553c6 -3 5 -4 1 -10c-166 -244 -263 -493 -297 -626c-1 -4 -3 -3 -5 -1l-54 60c-3 5 -4 5 -3 11c1 21 33 121 64 200c-47 -5 -94 -10 -141 -14c-53 -122 -99 -240 -105 -256c-1 -4 -2 -3 -4 -1l-90 82c-2 2 -2 4 0 9l76 155c-10 0 -19 -1 -28 -2c-5 0 -8 -1 -11 2
l-69 82c-5 4 0 4 7 4l145 1l187 361c4 0 6 0 77 -42c5 -2 4 -7 -1 -15c-50 -91 -102 -201 -149 -303l116 1c4 1 8 -1 14 -4c48 116 112 255 177 362c1 2 1 3 3 2z" />
    <glyph glyph-name="I" unicode="I" horiz-adv-x="330" 
d="M292 -4l60 -77c3 -4 0 -4 -4 -4l-318 1c-3 0 -3 0 -6 2l-35 43c-2 3 -3 4 1 4l141 18l-26 22c-4 4 -5 6 -2 12l251 507c-40 0 -73 1 -93 2c-6 0 -8 0 -12 4l-45 55c-5 7 0 5 9 5c85 0 203 6 325 20c2 0 2 0 4 -2l54 -72c1 -2 2 -5 -3 -5c-57 -5 -122 -7 -181 -8l32 -19
c8 -3 4 -7 0 -15c-72 -142 -166 -352 -221 -495l58 8c7 1 7 -1 11 -6z" />
    <glyph glyph-name="J" unicode="J" horiz-adv-x="423" 
d="M551 506c7 -5 7 -5 3 -14c-99 -210 -254 -550 -366 -576c-36 -9 -141 60 -157 85c-13 22 -13 68 -8 93c0 5 0 7 7 9l128 51c4 2 5 -1 4 -5c-3 -11 -50 -168 -26 -178c53 -23 196 300 303 551c-50 1 -91 3 -114 4c-6 0 -8 0 -12 4l-45 55c-5 7 0 5 9 5c84 0 201 6 322 20
c6 0 5 1 8 -4l54 -75c2 -2 2 -5 -3 -5c-43 -4 -90 -5 -135 -5c11 -6 22 -12 28 -15z" />
    <glyph glyph-name="K" unicode="K" horiz-adv-x="416" 
d="M522 528c2 2 3 0 4 -2l56 -85c2 -2 3 -2 1 -5c-79 -109 -205 -194 -324 -244c57 -98 141 -175 191 -211c1 -1 1 -2 -1 -3l-99 -63c-3 -2 -6 1 -9 4c-60 59 -123 157 -160 250c-54 -101 -95 -192 -122 -252c-2 -4 -3 -4 -5 -1l-80 77c-7 6 -11 6 -6 14c42 75 46 71 90 150
l-22 33c-1 3 -1 5 1 6c0 1 2 2 5 2l43 7c57 103 165 296 224 400c3 6 5 6 8 3c20 -14 45 -41 64 -58c6 -6 6 -6 1 -14c-21 -31 -114 -201 -168 -299c106 56 227 180 308 291z" />
    <glyph glyph-name="L" unicode="L" horiz-adv-x="236" 
d="M50 -13l-20 18c-4 4 -5 6 -2 12l261 586c4 8 6 9 11 5l95 -69c6 -4 5 -8 3 -13l-275 -537c94 7 177 -8 207 -16c7 -2 8 -1 12 -7l56 -114c3 -4 0 -4 -4 -4c-85 37 -257 80 -422 57c-4 0 -4 1 -6 3l-29 41c-2 3 1 4 4 6c35 14 84 28 109 32z" />
    <glyph glyph-name="M" unicode="M" horiz-adv-x="535" 
d="M719 548c6 -4 5 -5 1 -10c-166 -245 -260 -488 -294 -621c-1 -4 -4 -3 -5 -1l-54 60c-3 5 -5 5 -4 11c22 97 77 237 137 370c1 1 1 1 0 1c-75 -110 -167 -243 -232 -380c-2 -3 -3 -6 -5 -3l-52 50c-2 2 -2 2 -2 5l34 306c-58 -141 -117 -307 -155 -420c-1 -3 -2 -3 -4 -1
l-87 77c-7 6 -11 6 -8 14l276 601c1 4 4 3 8 1c24 -14 50 -30 74 -43c6 -3 5 -5 4 -13l-21 -349h1c49 89 213 312 294 400l1 1s0 1 1 1c0 0 0 1 1 1l1 -1z" />
    <glyph glyph-name="N" unicode="N" horiz-adv-x="451" 
d="M633 553c6 -4 5 -5 1 -10c-166 -245 -262 -495 -296 -628c-1 -4 -3 -3 -5 -1l-54 60c-2 3 -4 4 -4 8l-13 401c-65 -156 -130 -336 -172 -466c-1 -3 -1 -3 -4 -1l-93 82c-4 3 -4 7 -1 13l262 597c1 1 1 2 3 2s2 0 4 -1l73 -42c5 -2 5 -4 5 -9l2 -367
c58 155 140 330 202 419z" />
    <glyph glyph-name="O" unicode="O" horiz-adv-x="505" 
d="M564 495c39 -148 -112 -428 -255 -533c-79 -58 -136 -59 -169 -27l-61 66c-91 92 53 492 333 603c3 1 3 0 6 -2l31 -28l-2 33c0 5 3 3 7 -1l104 -101c4 -4 5 -5 6 -10zM158 -28c155 12 307 337 293 486c0 2 0 2 -1 1c-274 -136 -370 -493 -292 -487z" />
    <glyph glyph-name="P" unicode="P" horiz-adv-x="646" 
d="M474 610c123 0 280 -81 260 -224c-21 -151 -193 -267 -313 -264c-4 0 -5 0 -8 4l-43 46c-1 1 -2 2 -3 0c-42 -83 -98 -196 -123 -255c-2 -3 -3 -3 -5 -1l-79 77c-7 6 -11 6 -7 14l290 503c1 2 1 1 -1 1c-62 -17 -124 -61 -173 -102c-6 -5 -12 5 -14 7l-67 90
c-3 5 -5 6 1 10c70 52 177 94 285 94zM386 211c105 -3 303 133 265 254c-22 69 -139 58 -134 54l24 -21c2 -2 1 -3 0 -4c-56 -100 -94 -163 -155 -283z" />
    <glyph glyph-name="Q" unicode="Q" horiz-adv-x="501" 
d="M419 -126c6 -3 12 -5 6 -9l-83 -63c-3 -2 -6 0 -9 3c-34 29 -69 70 -102 116c-40 -14 -71 -7 -92 14l-62 66c-91 92 54 492 333 603c3 1 4 0 6 -2l31 -28l-1 33c0 5 3 3 7 -1l104 -102c5 -4 4 -4 6 -9c39 -148 -113 -428 -255 -533c41 -39 82 -70 111 -88zM255 19
c114 97 205 322 195 439c-1 2 -1 2 -2 1c-273 -136 -369 -493 -291 -487c11 1 23 4 35 8c-14 23 -27 45 -39 67c-3 7 2 9 8 11l42 18c4 1 8 4 11 -1c12 -19 26 -38 41 -56z" />
    <glyph glyph-name="R" unicode="R" horiz-adv-x="648" 
d="M269 409c-6 -5 -12 5 -14 7l-67 90c-3 5 -5 6 1 10c70 52 177 94 285 94c125 -1 296 -88 268 -237c-22 -112 -172 -190 -283 -208c57 -83 132 -152 176 -184c1 -1 0 -2 -1 -3l-99 -63c-3 -2 -6 1 -9 4c-57 57 -114 149 -156 236c-4 -1 -8 -1 -12 -1
c-41 -81 -91 -183 -114 -237c-2 -4 -3 -3 -5 -1l-79 77c-7 6 -11 6 -7 14l90 156l-18 22c-5 7 -8 11 2 13l40 7l176 304c1 2 1 2 -1 2c-62 -17 -124 -61 -173 -102zM426 220c85 17 178 87 209 168c51 134 -115 138 -119 132c0 0 0 -1 1 -2l24 -20c2 -2 1 -3 0 -5
c-53 -94 -86 -150 -142 -256c11 0 20 -3 24 -11z" />
    <glyph glyph-name="S" unicode="S" horiz-adv-x="421" 
d="M95 -78c-26 28 -55 56 -80 85c-7 7 -9 12 1 14c85 13 244 57 313 122c21 20 18 23 -7 35c-57 27 -120 49 -179 79c-21 10 -32 20 -25 50c23 100 196 271 276 298c30 9 46 8 54 -1l27 -31l19 32c4 7 5 6 11 1l68 -58c7 -6 3 -10 -3 -19l-163 -257c-8 -11 -11 -6 -20 3
l-38 40c-6 5 -9 7 -6 14l70 137c1 2 2 2 -1 1c-44 -16 -177 -129 -177 -166c0 -4 3 -7 8 -10c55 -35 116 -58 169 -98c12 -9 13 -19 10 -33c-18 -93 -164 -197 -256 -233c-18 -7 -57 -21 -71 -5z" />
    <glyph glyph-name="T" unicode="T" horiz-adv-x="361" 
d="M758 547c3 -3 4 -4 0 -5c-82 -18 -203 -44 -313 -50l38 -23c6 -4 6 -5 2 -11c-109 -188 -193 -425 -241 -545h-1l-69 83c-12 14 -18 17 -8 35c35 62 172 352 251 458c-56 -2 -111 -1 -162 5c-3 1 -4 1 -5 3l-52 71c-2 2 0 1 2 1c175 -24 348 14 456 49c3 1 4 1 6 -1z" />
    <glyph glyph-name="U" unicode="U" horiz-adv-x="454" 
d="M602 532c-127 -276 -259 -613 -402 -614c-49 0 -112 52 -135 105c-24 52 7 139 24 191c45 134 121 300 161 393c2 5 4 3 9 0l86 -51c8 -5 15 -7 11 -15c-25 -56 -287 -557 -186 -558c89 -1 300 567 326 626c1 2 4 0 7 -1l96 -53c13 -8 9 -10 3 -23z" />
    <glyph glyph-name="V" unicode="V" horiz-adv-x="335" 
d="M54 5l42 602c0 2 1 3 2 3h2l121 -109c5 -5 5 -6 4 -12l-70 -433c-2 -9 4 -5 6 0l283 549c3 5 3 7 10 3l63 -65c6 -6 7 -11 5 -15l-371 -611c-6 -10 -4 -14 -18 -2l-73 63c-9 9 -7 18 -6 27z" />
    <glyph glyph-name="X" unicode="X" horiz-adv-x="500" 
d="M414 265l87 -345c2 -7 3 -8 -4 -5l-95 36c-7 3 -11 5 -14 12l-65 213c-81 -80 -157 -157 -253 -253c-11 -11 -11 -15 -20 -2l-29 46c-1 2 -2 3 -1 5l274 297l-102 332c-3 9 4 9 13 6l125 -54c9 -4 13 -4 15 -13l43 -170l216 234c8 9 10 4 18 -4l66 -66c7 -7 3 -9 -6 -17
c-110 -101 -194 -180 -268 -252z" />
    <glyph glyph-name="W" unicode="W" horiz-adv-x="584" 
d="M274 499l-108 -385c-1 -6 2 -4 4 0l253 490c2 4 4 4 7 2l84 -70c5 -5 4 -6 3 -12l-113 -466c-3 -10 3 -6 6 -1l267 548c2 6 3 7 10 3l73 -72c12 -6 2 -19 -4 -28l-356 -591c-6 -10 -4 -14 -18 -2l-73 63c-9 9 -7 18 -6 27l54 297c0 4 -2 2 -3 0l-219 -385
c-6 -10 -4 -14 -18 -2l-62 57c-10 9 -8 11 -7 21l119 611c1 2 2 9 6 5l99 -98c4 -3 3 -8 2 -12z" />
    <glyph glyph-name="Y" unicode="Y" horiz-adv-x="322" 
d="M554 531l-284 -348l-89 -261c-3 -7 -5 -20 -14 -12l-81 69c-6 4 -5 11 1 23s43 91 80 171l-29 434c-1 2 1 3 2 3h2l116 -93c5 -4 5 -6 5 -11l-9 -245c0 -5 3 -4 4 -1l216 345c5 8 6 6 13 0l66 -62c7 -6 5 -7 1 -12z" />
    <glyph glyph-name="Z" unicode="Z" horiz-adv-x="405" 
d="M514 584l59 -92c5 -7 6 -5 -1 -10c-224 -169 -365 -351 -405 -428c-2 -5 -2 -4 2 -3c40 12 187 21 216 14c1 0 3 -2 4 -3l110 -146c2 -3 0 -4 -2 -3c-49 30 -272 80 -423 41c-3 -1 -3 -1 -5 2l-53 73c-3 4 -4 5 -2 9c107 173 360 382 470 468c2 1 3 3 3 4c0 0 -1 1 -4 0
c-84 -33 -226 -38 -259 -38c-6 0 -6 2 -8 7l-60 124c-1 3 0 2 2 2c63 -31 225 -43 340 -17c6 1 11 3 16 -4z" />
    <glyph glyph-name="a" unicode="a" horiz-adv-x="333" 
d="M241 265c-72 -48 -133 -130 -151 -191c-1 -4 -1 -5 3 -2l113 93c1 0 1 1 2 2c11 32 22 63 34 95c2 4 2 5 -1 3zM190 120l-111 -118c-4 -3 -9 -4 -13 0l-55 61c-25 29 83 283 241 319h2l18 -28c4 -6 3 -7 6 0c2 6 5 13 8 20c5 12 4 9 14 1l59 -50c10 -8 9 -5 3 -16
c-28 -65 -56 -134 -81 -198c-2 -5 -1 -3 4 2l163 174h29l-236 -285c-2 -3 -2 -3 -5 -1l-54 43c-8 6 -12 6 -9 16c5 18 11 36 18 57c1 4 2 5 -1 3z" />
    <glyph glyph-name="b" unicode="b" horiz-adv-x="315" 
d="M103 57c37 10 77 61 107 128c-3 0 -3 0 -7 3l-19 26c-2 3 -2 4 2 11c27 47 60 107 88 155c4 7 14 2 19 -1c15 -11 41 -47 53 -63c8 -9 7 -29 2 -52c-1 -2 -3 -10 -3 -12l92 34l15 -15l-125 -68c-41 -92 -120 -203 -175 -204c-4 0 -6 0 -9 2c-12 5 -53 29 -53 29
c-4 -9 -8 -20 -12 -29c-1 -2 -2 -2 -3 0l-60 48c-3 2 -5 3 -4 6c53 164 181 463 235 552c4 6 5 4 9 0l72 -62c1 -1 0 -2 -1 -4c-89 -140 -161 -325 -225 -482c-1 -2 0 -2 2 -2z" />
    <glyph glyph-name="c" unicode="c" horiz-adv-x="307" 
d="M363 309l-92 -127c-4 -4 -4 -2 -9 1l-34 27c-5 4 -10 6 -6 12l23 42c-87 -43 -144 -163 -141 -192c2 -13 19 -10 48 0c64 22 212 132 278 215h29c-59 -82 -250 -274 -361 -287c-11 -2 -21 0 -29 8l-42 45c-71 73 105 300 213 328c7 2 8 -1 12 -7l28 -44l24 47
c3 5 5 2 10 -3l49 -55c4 -4 3 -5 0 -10z" />
    <glyph glyph-name="d" unicode="d" horiz-adv-x="329" 
d="M173 56c6 20 13 41 20 63l-111 -117c-4 -3 -9 -4 -13 0l-55 61c-24 29 82 281 239 319c4 1 3 1 5 -2l19 -28c1 -2 1 0 2 2c43 107 86 205 112 251c5 8 6 6 13 0l67 -57c7 -5 4 -6 0 -14c-71 -140 -131 -280 -189 -427c0 -1 1 0 2 1l167 179h29l-235 -284
c-4 -4 -3 -5 -8 -1c-20 15 -43 33 -61 47c-4 3 -4 2 -3 7zM97 74l111 90c11 32 24 67 37 101c-73 -48 -135 -130 -152 -192c-2 -4 0 -2 4 1z" />
    <glyph glyph-name="e" unicode="e" horiz-adv-x="316" 
d="M361 318c-48 -126 -114 -199 -217 -203c-4 0 -4 0 -7 2l-16 11c-12 -25 -18 -46 -17 -56c2 -13 19 -10 48 0c64 22 212 132 278 215h29c-60 -82 -250 -274 -361 -287c-11 -2 -22 0 -29 8l-42 45c-71 74 107 304 215 328c5 1 5 0 9 -4l29 -33c3 -3 3 -2 4 1l11 27
c1 3 2 1 4 0l61 -46c4 -3 3 -4 1 -8zM258 271c-46 -22 -100 -78 -125 -119c47 6 99 52 125 119z" />
    <glyph glyph-name="z" unicode="z" horiz-adv-x="308" 
d="M117 162l-74 65c-30 26 108 185 169 150l109 -60c7 -4 10 -11 8 -18c-22 -94 -93 -167 -133 -197l33 -18l220 202h25l-213 -221l19 -11c9 -6 9 -10 9 -21c3 -61 -52 -166 -118 -217c-67 -53 -145 -70 -172 -55l-77 44c-9 6 -12 17 1 27l266 216l-33 15
c-4 -3 -15 -13 -28 -23c-11 -9 -19 -2 -30 5l-57 32c-15 9 28 36 51 46c4 1 32 2 33 3c64 37 100 134 108 197c-48 -22 -93 -92 -116 -161zM219 21l-162 -164c78 24 120 80 162 164z" />
    <glyph glyph-name="y" unicode="y" horiz-adv-x="341" 
d="M118 86l96 65l86 227c2 6 2 5 7 1l69 -58c4 -3 3 -3 1 -8c-30 -67 -59 -138 -84 -203c-1 -2 0 -2 1 -1c55 60 111 118 167 177h28l-230 -277l-104 -304c-6 -15 -13 -19 -19 -12l-81 91c-12 10 -15 23 -5 35l90 110c27 85 29 93 59 177l-119 -104c-3 -4 -3 -3 -12 3
l-48 39c-9 6 -11 6 -8 17c25 86 70 207 113 315c3 7 3 6 9 1l64 -54c7 -6 5 -6 2 -15c-10 -24 -53 -138 -85 -221c-3 -7 -3 -5 3 -1z" />
    <glyph glyph-name="x" unicode="x" 
d="M350 329c2 -3 1 -5 -2 -8l-167 -158c-1 -29 0 -67 4 -86c2 -9 4 -7 11 -1l216 210h29l-262 -284c-3 -3 -3 -3 -6 -1l-52 41c-6 4 -8 5 -10 13c-2 7 -4 19 -7 37l-87 -90c-4 -4 -3 -3 -7 0l-24 22c-4 3 -4 4 3 11l107 123c-7 81 -13 152 -2 220c1 7 4 4 9 1l86 -47
c6 -4 6 -6 5 -11c-4 -12 -11 -54 -11 -76c45 46 87 91 132 137c1 1 2 1 3 -1c11 -16 21 -35 32 -52z" />
    <glyph glyph-name="w" unicode="w" horiz-adv-x="474" 
d="M496 248l105 38l16 -15l-158 -86l-107 -182c-4 -6 -5 -4 -12 -1l-70 32c-10 4 -15 5 -17 17c-6 30 -7 80 -3 132l-78 -180c-4 -6 -5 -4 -12 -1l-70 32c-10 4 -15 5 -17 17c-14 72 0 247 37 328c1 3 4 4 7 2l76 -61c5 -5 8 -8 6 -12c-40 -103 -42 -190 -41 -207
c0 -9 2 -10 5 -2c43 93 85 187 127 280c1 3 4 4 7 2l76 -61c5 -5 8 -8 6 -12c-28 -56 -47 -157 -43 -220c1 -9 1 -9 5 -3l61 108l-24 22c-4 4 -2 8 -2 8l130 157c3 2 4 3 7 1l33 -28c7 -5 7 -8 2 -16z" />
    <glyph glyph-name="v" unicode="v" horiz-adv-x="294" 
d="M316 248l105 38l16 -15l-158 -86c-36 -61 -72 -121 -107 -182c-4 -6 -5 -4 -12 -1l-70 32c-10 4 -15 5 -17 17c-13 72 0 247 37 328c1 3 4 4 7 2l76 -61c5 -5 8 -8 6 -12c-40 -103 -44 -203 -43 -220c1 -9 1 -9 5 -3c21 36 41 72 61 108l-24 22c-4 4 -2 8 -2 8l130 157
c3 2 4 3 7 1l33 -28c7 -5 7 -8 2 -16z" />
    <glyph glyph-name="u" unicode="u" horiz-adv-x="342" 
d="M133 125l120 132l47 121c3 6 3 5 7 1l69 -58c4 -3 3 -4 1 -8c-29 -67 -58 -138 -84 -203c-2 -5 0 -2 4 1l164 175h29l-235 -283c-4 -5 -3 -5 -8 -1l-57 44c-5 5 -7 5 -5 12c12 42 26 83 41 125l-140 -174c-9 -12 -6 -13 -17 -4l-48 38c-9 7 -12 7 -9 18
c26 86 70 207 114 315c3 7 2 6 8 1l64 -54c8 -6 6 -6 2 -15c-9 -24 -41 -104 -74 -186c-3 -9 0 -5 7 3z" />
    <glyph glyph-name="t" unicode="t" horiz-adv-x="181" 
d="M308 534c-12 -21 -43 -88 -58 -119l19 3c4 0 4 1 8 -2l49 -47l4 -3s1 -1 0 -1c0 -1 -1 -2 -1 -2l-97 -5c-8 0 -9 1 -12 -6c-43 -94 -61 -145 -100 -243c-2 -4 0 -3 3 0l190 177h28l-256 -280c-8 -9 -5 -9 -14 -2l-50 38c-8 7 -12 8 -9 18c27 91 59 180 105 294
c3 6 5 8 -2 8h-64c-7 0 -8 0 -13 4l-37 31c-3 3 -7 5 -3 5l139 10c5 0 4 -1 6 4c28 64 68 157 86 188c4 8 5 6 12 0l67 -57c7 -5 4 -6 0 -13z" />
    <glyph glyph-name="s" unicode="s" horiz-adv-x="269" 
d="M298 260l99 26l16 -15l-138 -54c-2 -5 -7 -13 -10 -18c-3 -4 -5 -5 -11 1l-57 50c-2 2 -5 7 -2 8c3 2 24 6 30 9l24 50c-14 -1 -87 -13 -84 -41c1 -4 79 -116 93 -152c8 -20 4 -27 -7 -43c-25 -35 -79 -82 -98 -82c-32 0 -93 30 -133 71c-6 7 -12 11 -7 19
c11 16 39 54 54 68c6 6 5 4 8 -2c41 -73 84 -96 94 -88c25 19 -89 161 -105 202c-2 5 -2 9 -2 14c6 46 93 112 136 118c17 3 18 1 29 -8l40 -34l18 31c4 7 6 5 12 0l51 -37c6 -4 3 -8 -1 -14z" />
    <glyph glyph-name="r" unicode="r" horiz-adv-x="323" 
d="M314 376c2 3 3 2 5 0l58 -50c3 -3 5 -5 4 -8c-1 -5 -48 -60 -75 -143c0 -1 -1 -2 1 -1c14 7 109 88 138 112h29l-218 -201l-65 41c-1 1 -2 3 -2 5c10 48 66 121 75 133c1 1 1 2 -1 1c-77 -70 -154 -183 -154 -183l-29 -79c-1 -1 -2 -2 -3 -1c-20 17 -43 34 -65 50
c-1 2 -2 2 -1 4c25 87 72 211 116 324c1 4 4 2 6 1l69 -59c2 -2 2 -3 1 -5l-59 -146c-1 -1 87 130 170 205z" />
    <glyph glyph-name="q" unicode="q" horiz-adv-x="316" 
d="M247 263c-73 -47 -135 -129 -154 -191c-3 -7 1 -4 6 1l110 88c12 34 25 68 38 102zM426 283h24l-211 -317c-3 -129 1 -175 -97 -271c-7 -6 -5 -5 -14 2l-44 39c-12 10 -10 6 -6 21c35 120 71 234 113 354c-38 -43 -93 -104 -108 -111c-10 -5 -17 -3 -21 1l-48 58
c-25 30 82 283 240 319c2 1 3 -1 4 -3l20 -29c1 -2 1 -1 1 1c5 10 8 20 13 31c1 2 2 1 4 -1l72 -60c3 -2 1 -4 0 -7c-40 -94 -67 -157 -94 -230z" />
    <glyph glyph-name="p" unicode="p" horiz-adv-x="324" 
d="M283 376c4 6 4 4 9 0l64 -57c4 -4 5 -4 4 -9c-6 -50 -41 -138 -54 -156l144 129h34l-261 -258c-18 -23 -35 -37 -45 -44c-12 -9 -14 -4 -25 5l-38 30c-8 7 -8 10 -3 13l35 25c42 50 77 132 86 175c2 8 5 16 -1 8l-110 -137c-40 -104 -75 -200 -145 -401
c-3 -9 -2 -9 -10 -3l-48 43c-9 8 -11 9 -7 22c61 208 130 410 212 612c3 9 4 6 11 0l73 -61c3 -2 2 -4 0 -7c-14 -32 -60 -125 -41 -97c39 58 79 115 116 168z" />
    <glyph glyph-name="o" unicode="o" horiz-adv-x="295" 
d="M331 251l94 35l17 -15l-124 -69c-35 -96 -117 -173 -162 -197c-20 -11 -34 -10 -50 1l-70 45c-4 2 -6 6 -6 8c-34 74 72 275 181 324c3 2 3 2 7 0c11 -4 35 -18 45 -24c5 -4 4 -5 6 1l11 25c2 3 2 3 4 2c17 -14 32 -29 49 -44c3 -3 4 -3 4 -7c5 -29 1 -57 -6 -85z
M219 199c-5 3 -2 8 -2 8l26 67s-1 0 -2 -1c-30 -20 -132 -139 -124 -220c43 -3 104 89 126 136c-4 1 -6 2 -6 2s-12 6 -18 8z" />
    <glyph glyph-name="n" unicode="n" horiz-adv-x="343" 
d="M149 175l152 206c2 3 3 1 6 -1c23 -20 45 -38 69 -58c5 -4 2 -7 0 -14c-30 -68 -58 -135 -83 -201c-1 -1 0 0 1 1l168 178h29l-237 -285c-2 -2 -1 -2 -4 0l-60 47c-6 4 -6 3 -4 10c20 69 44 136 70 204c1 5 2 6 0 3l-176 -264c-1 -1 -1 -2 -2 -1c-21 17 -43 33 -65 50
c-2 1 -3 2 -2 4c25 87 73 211 116 323c2 5 5 2 6 1l69 -58c2 -2 2 -3 1 -6c-19 -46 -38 -93 -57 -139c-2 -5 1 -2 3 0z" />
    <glyph glyph-name="m" unicode="m" horiz-adv-x="493" 
d="M309 179l140 199c5 6 4 6 10 1l69 -58c3 -3 2 -3 1 -7c-29 -65 -57 -133 -82 -197c-5 -13 -2 -8 8 2l157 167h29l-231 -278c-9 -11 -6 -11 -17 -2l-49 38c-9 7 -10 8 -6 19c18 60 39 120 61 179l6 18l-9 -14l-153 -239c-7 -10 -4 -10 -15 -2l-39 32c-10 7 -13 7 -9 19
c16 56 37 128 62 202c1 4 -1 1 -2 0l-160 -255c-3 -6 -3 -4 -8 0l-55 43c-8 6 -8 5 -5 15c25 85 69 205 112 312c4 10 4 8 11 3l63 -53c2 -2 7 -4 2 -14c-14 -30 -45 -109 -55 -133c-2 -5 0 -3 2 1l136 199c5 8 4 6 11 0l63 -53c5 -4 7 -4 4 -10l-55 -134c-4 -10 -3 -7 3 0z
" />
    <glyph glyph-name="l" unicode="l" horiz-adv-x="176" 
d="M316 536c-74 -123 -132 -280 -185 -416c-5 -14 -3 -12 8 0l156 166h29l-235 -285c-4 -4 -5 -1 -9 2l-54 42c-7 5 -9 6 -7 14c49 166 168 462 219 549c3 4 3 3 6 0l72 -60c6 -5 4 -6 0 -12z" />
    <glyph glyph-name="k" unicode="k" horiz-adv-x="336" 
d="M308 534c-37 -63 -89 -176 -144 -313c-4 -10 2 0 6 6l179 238c6 7 6 4 13 -4l42 -51c5 -6 2 -8 -4 -14l-139 -138c-4 -5 -2 -4 3 -9l50 -39c8 -7 11 -7 7 -17l-33 -82c-2 -6 1 -2 6 3l162 172h28l-232 -282c-5 -6 -5 -6 -11 -1l-56 43c-5 4 -7 5 -6 12l47 164l-94 -94
c-7 -6 -7 -6 -10 -14l-43 -112c-2 -4 -2 -3 -4 -1l-60 46c-4 4 -6 4 -4 9c48 163 166 459 218 550c5 7 4 5 11 -1l68 -57c7 -6 4 -6 0 -14z" />
    <glyph glyph-name="j" unicode="j" horiz-adv-x="168" 
d="M124 375c4 9 4 8 12 2l63 -53c6 -6 6 -6 3 -14c-29 -65 -57 -133 -82 -197c-3 -9 -1 -6 5 1l162 172h29l-233 -280l-104 -300c-9 -26 -19 -12 -36 3l-64 76c-11 10 -14 23 -4 35l98 120c49 151 92 288 151 435zM183 472c-6 5 -7 5 -4 12l54 119c3 5 6 1 11 -3l62 -52
c8 -7 5 -10 1 -19l-54 -107c-4 -7 -3 -7 -9 -2z" />
    <glyph glyph-name="i" unicode="i" horiz-adv-x="168" 
d="M287 286h29l-235 -284c-4 -5 -5 -3 -10 1l-55 43c-5 4 -7 5 -5 12c32 107 74 217 115 320c3 6 3 4 8 0l68 -57c4 -4 2 -5 0 -10c-29 -67 -57 -135 -82 -199c-3 -7 -1 -5 4 1zM183 472c-6 5 -7 5 -4 12l54 119c3 5 6 1 11 -3l62 -52c8 -7 5 -10 1 -19l-54 -107
c-4 -7 -3 -7 -9 -2z" />
    <glyph glyph-name="h" unicode="h" horiz-adv-x="342" 
d="M257 264c0 2 0 3 -2 1l-176 -265c-1 -1 -1 -1 -2 0l-61 47c-5 3 -7 4 -5 10c48 161 162 448 216 544c7 13 9 8 20 -1l63 -54c4 -3 3 -4 0 -9c-41 -68 -102 -202 -164 -361c-2 -4 0 -2 3 2l147 197c8 10 11 4 22 -5l52 -44c10 -8 8 -10 3 -22c-28 -64 -54 -128 -79 -192
c-2 -5 -3 -6 3 0l164 174h29l-235 -283c-4 -5 -4 -4 -9 0l-51 40c-6 4 -9 5 -7 11c20 70 43 142 69 210z" />
    <glyph glyph-name="g" unicode="g" horiz-adv-x="294" 
d="M139 30l-33 15c-4 -4 -8 -12 -3 -15c118 -73 217 -154 210 -211c-5 -37 -115 -96 -147 -113c-65 -34 -133 62 -181 128c-10 14 -16 26 -19 36c-10 37 60 78 89 96c-14 12 -21 19 -25 24c-15 22 3 43 18 53l24 17c-8 6 -34 20 -38 28c-40 91 99 259 183 297c4 2 4 2 8 1
l88 -47l-21 -13l15 -2c8 -11 18 -39 19 -71l104 35l16 -15l-128 -71c-14 -71 -61 -148 -129 -177c-18 -8 -29 -5 -50 5zM122 85c0 -8 0 -12 4 -13c2 -2 6 -2 11 -2c51 7 88 60 100 119c-2 1 -12 6 -17 8c-6 3 -2 8 -2 8l26 59c-51 -12 -119 -135 -122 -179zM212 -234
c5 54 -76 124 -133 177c-25 -17 -37 -33 -18 -56c37 -45 84 -130 151 -121z" />
    <glyph glyph-name="f" unicode="f" horiz-adv-x="259" 
d="M206 273l16 34c1 3 4 4 5 2l44 -52c2 -2 3 -3 2 -6l-1 -6l116 40l16 -15l-109 -59l-35 -18c-64 -224 -127 -375 -192 -386c-10 -2 -18 0 -23 5l-51 43c-46 19 48 315 72 374c58 145 134 317 170 376c4 7 5 4 11 0l78 -64c2 -2 1 -2 0 -5c-37 -58 -114 -203 -177 -344
c-32 -72 -95 -263 -91 -326c45 43 109 207 142 317l-6 3c0 0 -12 6 -17 9c-6 2 -2 7 -2 7z" />
    <glyph glyph-name="D" unicode="D" horiz-adv-x="720" 
d="M190 516c133 98 425 151 538 -3c49 -67 59 -159 16 -262c-71 -168 -252 -333 -458 -337c-76 -1 -144 23 -200 77c-9 9 -22 42 -29 57c1 3 2 1 4 0c36 -21 96 -36 166 -54l-42 41c-7 6 -11 6 -6 14c128 233 126 240 264 462c-6 -1 -10 -3 -12 -3
c-79 -28 -151 -90 -161 -99c-6 -5 -12 5 -14 7l-67 90c-3 5 -5 6 1 10zM277 -8c190 -8 384 264 378 425c-10 83 -68 105 -122 106l22 -10c7 -3 3 -7 -3 -15c-102 -158 -196 -336 -275 -506z" />
    <glyph glyph-name="bracketleft" unicode="[" horiz-adv-x="242" 
d="M473 545l-110 -2c-7 0 -8 1 -10 -5l-221 -584c-5 -12 3 -11 14 -11h46c7 0 8 0 12 -5l46 -58c4 -5 1 -4 -5 -4h-127c-9 0 -13 -1 -19 5l-52 51c-7 8 -11 11 -7 21l244 648c4 11 5 9 17 10l135 1c7 0 8 -3 13 -8l43 -51c8 -10 -7 -8 -19 -8z" />
    <glyph glyph-name="bracketright" unicode="]" horiz-adv-x="230" 
d="M-46 -57l109 2c7 0 9 -1 11 5l212 584c4 12 -3 11 -15 11h-46c-6 0 -7 0 -12 5l-45 58c-5 5 -2 4 5 4h127c9 0 13 1 19 -5l51 -51c8 -8 11 -11 8 -21l-235 -648c-4 -11 -6 -10 -17 -10l-135 -1c-8 -1 -9 2 -13 8l-44 51c-8 10 7 8 20 8z" />
    <glyph glyph-name="braceleft" unicode="{" horiz-adv-x="271" 
d="M462 563c-146 8 -148 -154 -178 -246c-26 -80 -70 -77 -79 -81c-1 -1 0 -1 0 -1c32 -34 21 -66 5 -114c-10 -31 -56 -121 -56 -157c1 -22 40 -22 61 -19c6 1 6 0 9 -6l33 -52c4 -6 4 -8 2 -9c-17 -9 -110 -4 -123 11l-54 65c-20 22 -13 42 -4 72c21 61 49 118 71 179
c1 2 1 3 0 3c-10 1 -19 5 -25 12l-60 58c-2 2 1 5 4 6c24 15 70 27 93 5c2 -1 1 -1 3 0c88 59 51 347 257 333c4 0 6 -4 9 -6l34 -50c2 -2 0 -3 -2 -3z" />
    <glyph glyph-name="braceright" unicode="}" horiz-adv-x="334" 
d="M-34 -57c147 -8 160 146 190 238c26 80 70 77 79 81c1 1 0 1 0 1c-32 34 -21 66 -5 114c17 52 35 73 59 131c18 45 0 51 -68 49c-4 0 -26 40 -35 53c-7 12 25 12 31 12c23 1 52 -3 70 -9c23 -7 55 -50 71 -69c20 -22 13 -42 3 -72c-20 -61 -48 -118 -70 -179
c-1 -2 -1 -3 0 -3c10 -2 19 -5 25 -12l60 -58c2 -2 -2 -5 -4 -6c-24 -15 -71 -27 -94 -5c-1 1 0 1 -2 0c-88 -59 -51 -347 -257 -333c-4 0 -6 4 -9 6l-45 57c-2 3 -1 4 1 4z" />
    <glyph glyph-name="at" unicode="@" horiz-adv-x="514" 
d="M364 315c-60 -40 -111 -108 -126 -159c-1 -4 -1 -4 2 -2l95 77c0 1 0 1 1 2c9 27 18 52 28 79c2 3 2 4 0 3zM386 147c140 76 174 365 11 326c-143 -35 -268 -203 -265 -352c2 -150 139 -62 164 -31c5 5 6 3 13 0l49 -24c5 -3 2 -5 -3 -9c-61 -57 -160 -76 -219 -34
c-181 133 32 508 243 511c111 1 211 -134 176 -250c-27 -85 -93 -178 -153 -193c-18 -4 -36 -1 -52 11l-4 3c-3 3 -7 5 -13 11l-19 14c-6 5 -10 6 -7 14c4 15 9 30 15 48c1 2 1 4 -1 2l-93 -98c-3 -3 -7 -4 -10 0l-46 50c-21 25 69 236 201 266c0 0 1 1 1 0l15 -23
c4 -5 3 -6 5 0c2 5 4 11 7 16c4 10 3 8 12 1l49 -41c8 -7 7 -4 3 -14c-28 -65 -54 -139 -79 -204z" />
    <glyph glyph-name="colon" unicode=":" 
d="M128 48c21 9 71 -5 83 -39c9 -24 -35 -85 -72 -75c-58 17 -41 101 -11 114zM191 283c22 9 71 -4 84 -38c8 -24 -35 -86 -73 -75c-58 16 -40 101 -11 113z" />
    <glyph glyph-name="semicolon" unicode=";" 
d="M195 284c21 9 71 -4 83 -38c9 -24 -35 -86 -72 -75c-58 16 -40 101 -11 113zM148 51c26 -4 60 -23 59 -51c-3 -42 -44 -85 -82 -107c-5 -3 -28 -15 -24 1c12 40 21 69 12 117c-5 29 7 44 35 40z" />
    <glyph glyph-name="equal" unicode="=" horiz-adv-x="388" 
d="M329 203c7 0 8 -1 12 -8c9 -18 19 -37 28 -55c0 -9 -6 -7 -15 -7l-230 2c-3 -1 -10 4 -11 6l-25 57c-2 3 0 5 5 5h236zM341 333c7 0 8 -2 12 -8c9 -18 18 -37 28 -55c0 -9 -6 -8 -15 -8l-230 2c-3 0 -10 5 -11 7l-25 56c-2 3 0 6 5 6h236z" />
    <glyph glyph-name="slash" unicode="/" horiz-adv-x="449" 
d="M575 557c10 -8 1 -14 -7 -24c-205 -231 -345 -431 -498 -665c-3 -4 -5 -6 -10 -3l-36 32c-4 3 -5 4 0 11c188 319 379 595 474 696c5 5 8 8 12 4z" />
    <glyph glyph-name="backslash" unicode="\" horiz-adv-x="368" 
d="M136 580l79 29c5 2 10 0 11 -7c27 -202 60 -407 161 -731c3 -8 1 -13 -4 -11l-61 27c-7 3 -9 10 -12 17c-58 144 -114 345 -180 648c-3 12 -5 24 6 28z" />
    <glyph glyph-name="numbersign" unicode="#" horiz-adv-x="535" 
d="M629 510c8 -6 2 -11 -4 -19c-23 -28 -52 -68 -84 -115h47c2 0 3 -1 5 -4l25 -46c2 -3 0 -2 -4 -2c-16 1 -57 1 -108 1c-22 -34 -45 -69 -68 -105h67c2 -1 3 -1 5 -5l25 -45c2 -4 0 -3 -4 -2c-18 1 -66 1 -125 1c-40 -64 -76 -126 -101 -173c-2 -4 -4 -5 -8 -3l-33 26
c-3 3 -4 3 -1 10c24 51 47 97 69 139h-89c-38 -65 -73 -127 -97 -175c-2 -4 -3 -5 -8 -3l-33 25c-4 3 -5 3 -2 10c24 52 46 99 68 143c-40 0 -70 0 -83 1c-2 1 -4 3 -5 5l-26 44v1c-1 2 -1 4 1 4c24 -3 77 -4 139 -4c19 38 38 73 56 105c-39 0 -69 1 -81 2c-3 0 -4 2 -6 4
l-26 44v2c-1 2 -1 3 1 3c25 -3 79 -4 142 -4c39 68 76 124 110 177c3 5 6 6 9 4l57 -42c9 -6 3 -12 -3 -19c-23 -30 -52 -71 -83 -119h77c41 67 78 121 113 174c3 4 6 6 10 3zM360 220c20 38 40 73 59 105c-27 -1 -54 -1 -80 -1c-21 -34 -43 -69 -65 -105c29 1 58 1 86 1z
" />
    <glyph glyph-name="asterisk" unicode="*" horiz-adv-x="462" 
d="M461 271l13 -29c4 -4 -3 -13 -10 -13l-119 -2c50 -81 51 -83 51 -87c1 -3 -1 -6 -3 -9c-7 -14 -16 -27 -26 -41c-11 -5 -14 0 -19 10c-1 1 -1 1 -57 101l-67 -106c-3 -6 -10 -9 -16 -3l-18 27c-3 5 -3 13 1 19l50 88l-95 -2c-7 0 -13 3 -17 10c-7 13 -15 27 -21 41
c1 15 7 15 18 14c1 0 2 0 116 -3l-51 91c-4 4 -4 14 -1 19l18 26c4 4 12 5 16 -2l67 -106c56 99 56 100 57 101c5 9 8 15 19 10l2 -2l9 -15c5 -8 10 -15 15 -24c4 -8 5 -12 0 -20l-51 -81l102 -3c6 0 15 -4 17 -9z" />
    <glyph glyph-name="plus" unicode="+" horiz-adv-x="372" 
d="M319 288c7 0 9 -2 12 -8c10 -18 19 -37 28 -55c0 -9 -5 -8 -15 -7h-96c-5 -28 -10 -59 -14 -92c-1 -10 -1 -15 -10 -15c-16 10 -38 20 -54 30c-6 3 -7 5 -6 12c4 23 7 45 11 66h-60c-4 0 -11 5 -12 7l-25 56c-1 3 0 6 5 6h105c8 37 17 71 25 101c1 5 4 6 7 5l56 -27
c2 -1 5 -8 4 -12c-5 -18 -11 -40 -17 -67h56z" />
    <glyph glyph-name="comma" unicode="," horiz-adv-x="246" 
d="M149 51c26 -4 60 -23 58 -51c-2 -42 -43 -85 -81 -107c-6 -3 -29 -15 -24 1c12 40 21 69 12 117c-6 29 7 44 35 40z" />
    <glyph glyph-name="hyphen" unicode="-" horiz-adv-x="443" 
d="M412 288c7 0 9 -2 12 -8c10 -18 19 -37 28 -55c0 -9 -5 -8 -15 -7l-229 1c-4 0 -11 5 -12 7l-25 56c-1 3 0 6 5 6h236z" />
    <glyph glyph-name="period" unicode="." horiz-adv-x="252" 
d="M129 49c21 9 71 -5 83 -39c9 -24 -35 -85 -72 -75c-58 17 -41 101 -11 114z" />
    <glyph glyph-name="asciicircum" unicode="^" horiz-adv-x="290" 
d="M412 583c-2 -66 28 -170 35 -187c1 -7 -3 -9 -9 -12l-43 -21c-8 -3 -12 -2 -14 1c-10 13 -32 141 -33 158c0 6 -1 6 -3 3l-132 -158c-8 -8 -8 -6 -15 -1l-18 24c-4 5 -6 7 1 14l160 202c6 6 8 4 15 2l47 -11c8 -3 7 -5 9 -14z" />
    <glyph glyph-name="parenleft" unicode="(" horiz-adv-x="269" 
d="M400 608l61 -62c5 -5 5 -7 -1 -11c-213 -135 -372 -413 -268 -671c0 -2 -2 -1 -3 1l-62 48c-9 8 -13 13 -18 25c-94 256 76 539 287 670c2 2 2 2 4 0z" />
    <glyph glyph-name="parenright" unicode=")" horiz-adv-x="312" 
d="M312 559c10 -8 14 -13 18 -24c94 -257 -75 -540 -286 -671c-3 -2 -2 -1 -4 0l-61 62c-5 5 -6 7 0 11c213 135 373 413 269 671c-1 2 1 1 3 0z" />
    <glyph glyph-name="quotesingle" unicode="'" horiz-adv-x="156" 
d="M217 452c-6 6 -9 7 -6 15l47 137c3 7 6 7 12 2l51 -30c8 -5 12 -8 8 -15l-64 -123c-6 -10 -10 -16 -18 -7z" />
    <glyph glyph-name="quotedbl" unicode="&#x22;" horiz-adv-x="183" 
d="M141 453c-6 6 -9 7 -6 15l47 137c3 7 6 7 12 2l51 -30c8 -5 12 -8 8 -15l-64 -123c-6 -10 -10 -16 -18 -7zM260 453c-6 6 -9 7 -6 15l47 137c3 7 6 7 12 2l51 -30c8 -5 12 -8 8 -15l-64 -123c-6 -10 -10 -16 -18 -7z" />
    <glyph glyph-name="grave" unicode="`" horiz-adv-x="188" 
d="M312 430c-5 -3 -24 -19 -30 -22c-2 0 -3 -1 -4 1l-75 89c-3 3 -2 3 2 6l49 27c1 0 2 1 4 -2l55 -97c0 -1 0 -1 -1 -2z" />
    <glyph glyph-name="less" unicode="&#x3c;" horiz-adv-x="459" 
d="M512 377c6 -4 -1 -6 -8 -9l-283 -140c30 -26 175 -96 219 -102c2 0 0 -2 -2 -4l-68 -74c-2 -2 -4 -1 -7 0c-104 35 -240 147 -271 174c-5 5 -9 7 -3 10l355 193c6 3 7 1 13 -3z" />
    <glyph glyph-name="greater" unicode="&#x3e;" horiz-adv-x="471" 
d="M516 251c5 -5 9 -7 3 -10l-354 -192c-6 -4 -8 -1 -13 3l-56 45c-5 4 2 6 8 9l284 140c-31 25 -175 95 -219 101c-3 0 0 2 2 4l68 74c2 2 4 1 7 0c104 -34 240 -146 270 -174z" />
    <glyph glyph-name="bar" unicode="|" horiz-adv-x="250" 
d="M353 566c9 -5 6 -9 2 -19l-250 -663c-4 -13 -9 -8 -19 -1l-24 16c-7 4 -11 6 -8 13l228 694c3 8 4 8 11 3z" />
    <glyph glyph-name="underscore" unicode="_" horiz-adv-x="289" 
d="M-31 -1c82 -9 231 -1 325 -4c2 0 4 -1 6 -5l23 -55c2 -4 1 -3 -5 -3c-65 5 -261 -3 -320 2c-3 1 -4 3 -5 5l-26 54v2c-1 2 -1 4 2 4z" />
    <glyph glyph-name="exclam" unicode="!" horiz-adv-x="249" 
d="M97 49c21 9 71 -5 83 -39c9 -24 -35 -85 -72 -75c-58 17 -41 101 -11 114zM375 561c8 -5 5 -9 1 -19l-187 -442c-3 -8 -6 -9 -10 -6l-42 23c-6 4 -10 6 -8 13l166 473c3 8 4 8 11 4z" />
    <glyph glyph-name="question" unicode="?" horiz-adv-x="373" 
d="M202 475c35 72 131 132 193 134c39 1 75 -22 110 -65c109 -139 -256 -276 -244 -442c1 -4 1 -11 -3 -9l-43 23c-2 1 -6 2 -7 5c-63 126 294 339 250 416c-5 7 -15 10 -35 6c-65 -13 -135 -83 -160 -151c-8 -23 -12 -14 -28 5l-32 39c-13 16 -11 18 -1 39zM165 49
c21 9 71 -5 83 -39c9 -24 -35 -85 -72 -75c-58 17 -41 101 -11 114z" />
    <glyph glyph-name="asciitilde" unicode="~" horiz-adv-x="450" 
d="M405 299c28 -15 51 -45 52 -64c1 -7 0 -8 -3 -13l-23 -40c-3 -5 -2 -3 -5 3c-13 23 -27 33 -42 36c-45 10 -151 -60 -210 -29c-28 15 -52 45 -52 64c-1 7 0 8 3 13l23 40c3 5 1 3 5 -3c57 -100 169 37 252 -7z" />
    <glyph glyph-name="dollar" unicode="$" horiz-adv-x="448" 
d="M444 509c80 -24 95 -72 52 -156c-14 -29 -82 -36 -113 -40c-5 -1 -9 0 -5 3c20 20 123 143 40 136c-28 -62 -55 -123 -83 -185c50 -60 101 -128 62 -178c-18 -23 -109 -88 -132 -97c-21 -8 -37 -8 -54 1c-11 -23 -21 -47 -32 -70c-6 -13 -10 -8 -20 -1l-22 16
c-6 4 -10 6 -7 13c10 25 21 50 32 75c-29 21 -60 46 -71 63c-14 18 -24 22 -13 42c15 27 51 103 51 93c-1 -51 30 -90 67 -116c18 41 35 82 53 124c-36 48 -71 93 -76 112c-3 12 -5 25 0 40c27 83 141 122 198 137c12 28 24 56 35 84c4 7 4 7 11 3l47 -35c8 -5 4 -9 0 -19
c-7 -15 -14 -30 -20 -45zM323 74c20 12 0 51 -31 97c-14 -30 -28 -60 -41 -90c32 -12 60 -14 72 -7zM288 324c15 35 29 70 44 104c-47 -18 -80 -43 -66 -70c5 -11 13 -22 22 -34z" />
    <glyph glyph-name="percent" unicode="%" horiz-adv-x="585" 
d="M478 204c27 -2 69 -38 68 -61c-9 -79 -51 -169 -105 -226c-25 -26 -50 -41 -69 -38c-19 2 -54 32 -59 49c-13 44 20 120 51 172c31 51 70 94 100 103c4 1 9 2 14 1zM437 23c24 44 41 91 51 124c-23 -20 -55 -63 -80 -107c-24 -42 -40 -84 -39 -108c2 -20 38 32 68 91z
M223 248c-18 3 -53 32 -58 49c-14 45 19 121 51 172c31 51 70 95 99 103c5 2 10 2 15 2c26 -2 69 -38 67 -62c-8 -78 -50 -168 -104 -225c-25 -26 -50 -41 -70 -39zM259 409c-23 -41 -39 -84 -38 -107c2 -20 38 31 68 90c23 45 41 91 50 124c-23 -19 -55 -62 -80 -107z
M668 569c9 -7 1 -14 -7 -23c-205 -232 -387 -437 -540 -671c-3 -4 -5 -6 -10 -2l-28 23c-4 3 -5 4 0 11c188 319 428 595 524 696c5 5 8 8 12 5z" />
    <glyph glyph-name="ampersand" unicode="&#x26;" horiz-adv-x="541" 
d="M472 515c-60 -32 -159 -111 -180 -253c68 57 176 188 180 253zM329 73c50 52 94 129 106 179c2 5 4 6 7 5l79 -100c5 -6 4 -10 1 -17c-12 -36 -136 -139 -144 -139c26 -40 83 -91 119 -91c9 0 -52 -34 -81 -48c-16 -8 -17 -8 -32 -2c-11 4 -49 56 -76 97
c-49 -45 -175 -74 -207 -39c-26 29 -76 73 -78 96c-1 9 1 20 8 33c25 51 132 128 177 171c-41 275 174 424 235 387l87 -54c27 -16 22 -44 14 -72c-33 -107 -200 -255 -250 -298c-3 -3 5 -53 35 -108zM272 22c-25 45 -38 91 -38 98c0 4 -86 -97 -96 -129
c-9 -31 115 15 134 31z" />
    <glyph glyph-name="C" unicode="C" horiz-adv-x="465" 
d="M626 289h29c-85 -88 -337 -383 -470 -374c-49 3 -125 96 -136 136c-38 131 135 461 416 554c29 9 46 8 54 -1l27 -31l18 32c4 7 5 7 11 1l69 -58c8 -6 3 -10 -2 -19l-179 -288c-7 -12 -10 -6 -19 3l-46 45c-5 5 -9 8 -5 14l92 163c-231 -105 -383 -389 -322 -468
c47 -62 370 202 463 291z" />
    <glyph glyph-name="A" unicode="A" horiz-adv-x="581" 
d="M765 553c5 -4 4 -5 0 -10c-166 -245 -262 -495 -295 -628c-1 -4 -4 -3 -6 -1l-53 60c-4 5 -5 5 -4 11c12 55 35 127 64 204l-141 -15c-63 -82 -126 -170 -181 -255c-2 -5 -3 -4 -7 -1l-102 48c-7 4 -12 5 -7 11c50 64 104 126 157 185l-39 -3c-4 0 -8 -2 -11 2l-75 81
c-5 5 0 4 7 4l200 2c129 133 250 242 325 311c3 2 3 2 7 0c7 -2 20 -7 32 -11c13 23 26 45 39 62zM482 238c2 -1 4 -2 7 -4c35 90 77 183 117 259c-59 -57 -136 -144 -216 -243h65c6 1 14 -5 27 -12z" />
    <glyph glyph-name="B" unicode="B" horiz-adv-x="665" 
d="M724 385c-31 -69 -114 -122 -182 -142c282 -60 -61 -496 -464 -258c-3 2 -5 3 -7 7l-27 66c1 3 2 1 4 0c36 -20 96 -36 166 -53l-42 40c-7 6 -11 6 -6 14c38 69 66 121 90 166l-11 22c-6 13 5 11 22 11h8c44 80 83 144 160 265c-68 -20 -121 -50 -180 -97
c-5 -5 -11 5 -13 7l-62 81c-3 5 -5 7 1 10c128 85 322 115 447 56c80 -37 135 -107 96 -195zM262 -3c204 -30 358 215 184 232c-31 -8 -52 -12 -76 -15c-56 -106 -93 -185 -108 -217zM558 354c64 43 140 142 36 176c-28 9 -63 11 -94 6l41 -19c7 -3 3 -7 -3 -15
c-47 -74 -87 -142 -126 -212c53 9 104 35 146 64z" />
    <glyph glyph-name="notdef" horiz-adv-x="638" 
d="M348 403c0 -8 -4 -28 -8 -40c0 0 -4 -3 -11 -9c5 14 14 41 19 49zM269 104l6 -19c1 -3 0 -4 -1 -5l-3 -1l-9 26l3 1c2 1 3 0 4 -2zM404 149l1 -4c1 -2 0 -3 -2 -4l-2 -1l-4 11l2 1c2 0 4 -1 5 -3zM59 182c0 0 20 -3 57 29c0 0 -9 -52 -15 -98c-17 21 -32 45 -42 70v-1z
M335 126l7 -19c1 -3 0 -3 -1 -4c-3 -1 -4 0 -5 2l-6 20c-1 2 0 4 2 4c1 0 3 0 3 -3zM446 450c2 0 4 1 6 1c-5 -30 -11 -65 -13 -83c-3 -3 -5 -6 -7 -8c-4 -5 -2 -3 -2 2c6 24 13 59 16 88zM456 382v0v0zM569 430c-41 10 -66 -32 -85 -54c2 12 13 54 23 55l-20 12
s-3 -5 -6 -12l-23 -36c4 18 9 39 13 58c25 5 46 12 60 25c0 0 1 0 2 1c14 -15 26 -32 36 -49zM259 385c1 -9 -1 -29 -5 -41c0 0 -3 -3 -10 -9c4 13 12 41 15 50zM538 234c18 3 46 6 14 -15c-16 -11 -17 -4 -14 15zM576 414c19 -37 28 -79 28 -123
c0 -155 -127 -283 -283 -283c-81 0 -154 33 -205 87c10 54 26 123 31 148l-12 10v0l-6 6s-22 -45 -78 -54c-8 26 -14 53 -14 81c20 0 59 11 89 21c-13 -11 -25 -23 -25 -25l25 -19c21 -2 78 24 94 51l4 -1l4 3c0 -3 1 -5 1 -7c1 -4 4 -7 5 -8l4 -1c-22 -3 -48 -13 -73 -35
l21 -15c11 15 34 31 53 38c3 1 7 2 10 3c-4 -28 -11 -60 -18 -92c-1 0 -3 -1 -4 -2c-3 -1 -4 -2 -5 -3c5 30 14 61 18 66v1l-13 8l-1 -1v-1c-4 -5 -15 -29 -30 -53c2 9 5 25 6 28v1l-9 5s-16 -36 -29 -64c6 26 13 50 16 56l-21 16c-1 0 -24 -130 -28 -134l13 -6l-1 -2
c1 0 1 1 1 1h1c0 1 2 5 3 11c10 24 26 63 32 76c-2 -13 -16 -62 -16 -62l16 -4c6 25 16 68 31 86c-3 -7 -14 -50 -15 -58l22 -7c0 10 1 22 3 33c6 -2 3 -1 9 1c-3 -15 -7 -30 -10 -43c-1 -4 -3 -14 -4 -18l21 -10c3 25 7 52 12 79c23 13 35 26 41 41c-3 -13 -4 -25 -3 -32
c2 -3 4 -6 5 -7l13 -5c7 -6 17 8 27 46l-16 1c-2 -9 -9 -43 -15 -41c-1 3 0 29 3 38c13 10 27 16 27 16c7 21 7 38 3 47h-1l-13 10c-4 3 -17 -25 -25 -53c1 22 -15 37 -39 40c6 6 11 18 14 27l-12 11c-1 -10 -9 -37 -15 -35c0 4 -2 15 0 25c13 9 25 17 25 17c7 21 6 38 1 46
l-1 1l-13 9c-7 4 -26 -49 -27 -79l-7 -5c1 3 3 6 3 10c0 40 -63 31 -84 26c17 15 58 25 78 30c-3 -9 -5 -16 -10 -23l17 -9c6 10 15 26 21 54l-22 12c-2 -9 -3 -18 -4 -25l-18 14c-3 -4 -101 -45 -86 -62v0l14 -10c1 0 31 12 56 14c9 0 24 1 24 -12c-1 -24 -52 -45 -86 -52
c16 13 41 27 45 32l-21 13s-52 -22 -111 -21c10 149 133 267 284 267c83 0 158 -36 210 -93l-25 11v0v0v0v0v0v0v0c-8 -11 -19 -18 -31 -22c3 14 6 26 7 30l-20 11c0 -4 -4 -24 -8 -48c-2 0 -4 -1 -6 -1c1 16 3 30 2 37l-18 16c1 -7 1 -29 -2 -55c-75 -7 -181 13 -264 -32
l35 -18c59 38 153 33 228 38c-4 -35 -12 -74 -22 -102l20 -10l12 17l16 -13c0 4 -1 7 0 13c1 8 12 36 22 54c-3 -13 -6 -32 -8 -41c0 -1 0 -2 1 -2l13 -8c4 10 47 66 93 57zM387 424l-16 9c-1 -3 -4 -63 -17 -97l13 -8c0 2 0 4 1 7c2 8 18 45 29 61c-5 -23 -21 -62 -20 -66
l20 -9c-2 5 17 88 20 97l3 9l-14 9s-1 -2 -4 -5c-4 -6 -18 -41 -28 -66c7 30 13 57 13 59zM330 316c7 -5 19 15 25 29l-12 11c-2 -9 -10 -35 -16 -34c-1 4 -2 15 2 25v0v1c12 8 25 15 25 15c8 21 8 38 4 46l-1 2l-13 9c-7 4 -29 -49 -31 -79l-9 -6c10 39 25 89 35 95l-11 8
c-6 -6 -22 -56 -34 -108l-3 84l-23 16c9 -50 11 -88 10 -129l17 -11c1 6 4 23 9 44l5 -2l4 3v-5c1 -4 3 -8 5 -8zM345 322c3 -10 -8 -74 -18 -117l18 -6c2 12 4 23 6 35c3 16 18 57 25 67c-3 -17 -8 -33 -7 -35l19 -15c-2 2 2 41 7 64l-18 9s-8 -20 -21 -48c2 19 4 34 3 38z
M275 75c6 2 8 7 6 12l-6 18c-2 6 -6 8 -12 6l-9 -3l12 -36zM287 79l16 6l-2 5l-10 -4l-4 11l9 3l-2 4l-8 -2l-3 10l9 3l-1 5l-16 -5zM325 92l5 2l-12 35l-8 -2l5 -26v0l-13 23l-8 -2l12 -36l5 2l-8 25v0l13 -24l5 2l-5 27v0zM342 98c6 2 8 6 6 12l-7 18c-2 6 -6 8 -11 6
c-6 -2 -8 -6 -6 -11l7 -19c1 -6 6 -8 11 -6zM367 106l8 3l-7 38l-5 -2l6 -31v0l-15 28l-6 -2zM382 112l16 5l-2 6l-9 -4l-4 10l8 3l-2 5l-7 -2l-4 10l10 3l-2 5l-16 -5zM414 123l5 1c-1 2 -2 2 -2 5l-2 5c-1 4 -3 6 -6 6v0c2 2 2 5 1 9l-1 2c-1 7 -5 8 -11 6l-9 -2l12 -37
l7 2l-6 15l3 1c2 0 3 0 5 -4l1 -6c1 -3 2 -3 3 -3zM430 127c6 2 7 7 5 12c-1 4 -4 7 -10 9c-5 3 -6 4 -8 7c0 3 0 3 3 4c1 1 3 0 4 -2v-2l6 2l-1 1c-2 6 -6 8 -12 6c-5 -2 -6 -6 -5 -12c2 -4 4 -6 10 -9c5 -1 7 -3 8 -6c0 -2 0 -4 -2 -5c-1 0 -3 0 -4 3l-1 3l-6 -2l1 -2
c2 -6 6 -8 12 -7zM442 132l5 2l-12 36l-6 -3zM459 138c6 1 8 6 6 11l-7 19c-2 6 -6 8 -11 6s-8 -6 -5 -12l6 -18c2 -6 6 -8 11 -6zM484 146l6 2l-13 36l-5 -1l7 -22v0l-13 19l-7 -2l12 -36l6 2l-9 26v0zM563 209c43 28 9 40 -24 35c5 28 37 104 44 135l-22 24
c-8 -27 -27 -76 -39 -101c1 4 12 45 12 45l-14 12c0 -1 -30 -78 -32 -87c4 21 18 65 18 69l-21 10c-1 -5 -9 -59 -11 -68c-2 -16 -7 -33 -6 -34l12 -11c3 -2 30 70 32 75c-3 -17 -9 -41 -10 -55l11 -11c2 -1 25 71 30 81c-2 -10 -5 -20 -8 -27c-1 -4 -4 -15 -8 -29
c-2 -7 -5 -17 -6 -29c-16 -2 -34 -6 -54 -11c-3 30 7 87 14 109l-16 16c-4 -17 -11 -55 -13 -86c-6 -8 -14 -19 -19 -26c12 40 19 77 21 89l-17 14c-3 -11 -17 -93 -23 -113l14 -11c1 0 14 18 23 34c0 -10 1 -18 2 -24l5 -4c-18 -5 -37 -10 -57 -17c7 36 25 113 25 119
l-21 7c0 -6 -10 -83 -20 -121l10 -6c-45 -16 -95 -34 -142 -56l35 -8c75 41 166 70 231 83c0 -8 1 -15 6 -18l11 -11c5 -3 13 -3 27 7zM306 248c4 13 13 40 18 49c0 -9 -4 -29 -8 -41c0 0 -3 -3 -10 -8zM252 214c4 26 9 51 13 74l-11 3c11 2 23 -1 26 -15
c4 -17 -8 -44 -28 -62zM453 167l6 -20c1 -2 0 -4 -1 -5c-2 0 -3 0 -4 3l-7 19c-1 3 0 4 2 5c1 1 3 0 4 -2z" />
    <glyph glyph-name="zero" unicode="0" horiz-adv-x="27" 
d="M-61 -90c-5 0 -5 -1 -2 3l26 26c3 4 2 3 7 4c518 74 787 -25 829 -43c10 -4 -2 -6 -12 -9l-164 -50c-10 -3 -7 -4 -15 0c-222 109 -543 86 -669 69z" />
    <glyph glyph-name="one" unicode="1" horiz-adv-x="26" 
d="M-70 -90c-5 0 -5 -1 -2 3l26 26c3 4 2 3 6 4c519 74 995 -25 1037 -43c10 -4 -2 -6 -12 -9l-224 -62c-10 -3 -7 -4 -15 1c-222 108 -690 97 -816 80z" />
    <glyph glyph-name="two" unicode="2" horiz-adv-x="32" 
d="M860 -167c-417 123 -923 47 -944 43c-5 0 -13 -2 -9 1l42 41c4 4 3 4 9 5c320 72 794 48 1123 17c4 0 9 -3 8 -4c-75 -36 -144 -64 -216 -103c-4 -2 -6 -2 -13 0z" />
    <glyph glyph-name="three" unicode="3" horiz-adv-x="28" 
d="M1112 -189c-530 144 -1179 74 -1200 71c-5 -1 -14 -2 -10 1l42 41c4 4 4 4 9 5c321 72 1077 34 1406 3c4 0 9 -3 8 -4c-75 -36 -170 -78 -242 -117c-3 -2 -5 -2 -13 0z" />
    <glyph glyph-name="four" unicode="4" horiz-adv-x="31" 
d="M1082 -210c-426 161 -1036 102 -1098 96c-5 -1 -6 -2 -10 1l-41 29c-2 1 -2 2 0 2c320 73 698 57 1028 26c4 0 7 -3 8 -4l116 -141c5 -7 6 -12 -3 -9z" />
    <glyph glyph-name="five" unicode="5" horiz-adv-x="28" 
d="M1416 -214c-427 160 -1382 111 -1444 104c-5 0 -6 -1 -10 2l-41 29c-1 1 -2 2 0 2c320 73 1044 47 1374 17c4 -1 7 -3 8 -5l115 -141c6 -7 7 -12 -2 -8z" />
    <glyph glyph-name="six" unicode="6" horiz-adv-x="25" 
d="M-125 -199c-9 -2 -8 2 -2 8l114 120c1 1 4 3 8 4c330 30 749 68 1069 -5c1 0 1 0 1 -1l70 -49c1 -1 1 -2 0 -2c-336 65 -917 8 -1260 -75z" />
    <glyph glyph-name="seven" unicode="7" horiz-adv-x="40" 
d="M-133 -190c-10 -3 -9 2 -3 8l114 119c2 1 4 4 8 4c331 31 1081 53 1402 -20h1l70 -50c1 -1 1 -2 0 -1c-336 64 -1250 23 -1592 -60z" />
    <glyph glyph-name="eight" unicode="8" horiz-adv-x="31" 
d="M27 -205c-5 -1 -9 2 -17 7l-179 124c-1 1 -1 3 3 4c330 31 848 73 1168 0c1 0 1 -1 2 -1l73 -56c1 -1 1 -2 -1 -2c-335 65 -707 7 -1049 -76z" />
    <glyph glyph-name="nine" unicode="9" horiz-adv-x="33" 
d="M16 -194c-4 -1 -8 2 -16 7l-179 124c-1 1 -1 4 3 4c330 31 1237 54 1557 -19c1 0 1 -1 1 -1l74 -56c1 -1 0 -2 -1 -2c-335 65 -1096 26 -1439 -57z" />
    <glyph glyph-name="CR" unicode="&#xd;" horiz-adv-x="0" 
 />
    </font>
</defs>
</svg>
